# xmcd
#
# Track frame offsets: 
#        182
#        14270
#        34162
#        46260
#        67282
#
# Disc length: 1013 seconds
#
# Revision: 0
# Processed by: cddbd v1.5.2PL0 Copyright (c) Steve Scherf et al.
# Submitted via: ExactAudioCopy v0.99pb5
#
DISCID=3f03f305
DTITLE=Cryptal Darkness - Chamber of Gore
DYEAR=1994
DGENRE=Death Metal
TTITLE0=Mulched into Blood and Bone
TTITLE1=Bloody Orgy
TTITLE2=Disarticulation by Mastication
TTITLE3=Decomposing Organs
TTITLE4=Mist Enshadowed Graveyard
EXTD=
EXTT0=
EXTT1=
EXTT2=
EXTT3=
EXTT4=
PLAYORDER=
